<svg width="128" height="128" viewBox="0 0 128 128" fill="none" xmlns="http://www.w3.org/2000/svg">
<rect width="128" height="128" rx="64" fill="url(#paint0_linear_1_3)"/>
<g filter="url(#filter0_bd_1_3)">
<path d="M94.8668 91.9829C79.9951 94.3645 66.2958 95.8835 53.769 96.54C47.5056 96.8683 42.8269 95.6395 39.7328 92.8536C36.6388 90.0677 34.9276 85.5431 34.5994 79.2796L32.9916 48.6017C32.6399 41.891 33.8873 36.9549 36.7338 33.7936C39.6408 30.565 44.4497 28.7749 51.1605 28.4232L85.6731 26.6145L86.3765 40.0361L55.6986 41.6438C51.8639 41.8448 50.047 43.8626 50.2479 47.6974L51.8557 78.3753C51.9327 79.8453 52.4101 81.0059 53.2879 81.8571C54.2262 82.6411 55.4304 82.9945 56.9003 82.9175C64.2503 82.5323 70.9527 82.0208 77.0076 81.3831L76.2791 67.4821L63.8162 68.1353L63.2133 56.6311L92.9325 55.0736L94.8668 91.9829Z" fill="white"/>
<path d="M94.8668 91.9829L95.3412 94.9452L98.0038 94.5188L97.8627 91.8259L94.8668 91.9829ZM39.7328 92.8536L41.7402 90.6241L41.7402 90.6241L39.7328 92.8536ZM36.7338 33.7936L38.9632 35.801L38.9632 35.801L36.7338 33.7936ZM85.6731 26.6145L88.669 26.4575L88.512 23.4616L85.5161 23.6186L85.6731 26.6145ZM86.3765 40.0361L86.5335 43.0319L89.5294 42.8749L89.3724 39.8791L86.3765 40.0361ZM53.2879 81.8571L51.1994 84.0107L51.2791 84.0881L51.3644 84.1593L53.2879 81.8571ZM77.0076 81.3831L77.3218 84.3665L80.1524 84.0684L80.0035 81.226L77.0076 81.3831ZM76.2791 67.4821L79.275 67.3251L79.118 64.3292L76.1221 64.4862L76.2791 67.4821ZM63.8162 68.1353L60.8203 68.2923L60.9773 71.2882L63.9732 71.1312L63.8162 68.1353ZM63.2133 56.6311L63.0563 53.6352L60.0604 53.7922L60.2174 56.7881L63.2133 56.6311ZM92.9325 55.0736L95.9284 54.9165L95.7714 51.9207L92.7755 52.0777L92.9325 55.0736ZM94.3924 89.0206C79.6057 91.3886 66.0139 92.8942 53.612 93.5442L53.926 99.5359C66.5777 98.8729 80.3844 97.3404 95.3412 94.9452L94.3924 89.0206ZM53.612 93.5442C47.7462 93.8516 44.0017 92.6604 41.7402 90.6241L37.7254 95.083C41.652 98.6186 47.265 99.885 53.926 99.5359L53.612 93.5442ZM41.7402 90.6241C39.4787 88.5879 37.9027 84.9885 37.5953 79.1226L31.6035 79.4367C31.9526 86.0976 33.7988 91.5475 37.7254 95.083L41.7402 90.6241ZM37.5953 79.1226L35.9875 48.4447L29.9957 48.7588L31.6035 79.4367L37.5953 79.1226ZM35.9875 48.4447C35.6541 42.0829 36.8875 38.1063 38.9632 35.801L34.5043 31.7862C30.8871 35.8036 29.6258 41.6991 29.9957 48.7588L35.9875 48.4447ZM38.9632 35.801C41.1087 33.4182 44.9772 31.7514 51.3175 31.4191L51.0035 25.4273C43.9221 25.7984 38.1729 27.7119 34.5043 31.7862L38.9632 35.801ZM51.3175 31.4191L85.8301 29.6104L85.5161 23.6186L51.0035 25.4273L51.3175 31.4191ZM82.6772 26.7715L83.3806 40.1931L89.3724 39.8791L88.669 26.4575L82.6772 26.7715ZM86.2195 37.0402L55.5416 38.6479L55.8556 44.6397L86.5335 43.0319L86.2195 37.0402ZM55.5416 38.6479C53.1624 38.7726 50.8591 39.4918 49.2304 41.3006C47.6018 43.1093 47.1274 45.4752 47.2521 47.8544L53.2438 47.5404C53.1675 46.0848 53.501 45.5244 53.6893 45.3153C53.8776 45.1062 54.4 44.716 55.8556 44.6397L55.5416 38.6479ZM47.2521 47.8544L48.8598 78.5323L54.8516 78.2183L53.2438 47.5404L47.2521 47.8544ZM48.8598 78.5323C48.9679 80.5955 49.6712 82.5287 51.1994 84.0107L55.3764 79.7035C55.1491 79.483 54.8975 79.0951 54.8516 78.2183L48.8598 78.5323ZM51.3644 84.1593C52.998 85.5242 54.9942 86.0215 57.0573 85.9134L56.7433 79.9216C55.8665 79.9676 55.4544 79.7579 55.2114 79.5549L51.3644 84.1593ZM57.0573 85.9134C64.4494 85.526 71.2052 85.0108 77.3218 84.3665L76.6933 78.3996C70.7001 79.0308 64.0511 79.5386 56.7433 79.9216L57.0573 85.9134ZM80.0035 81.226L79.275 67.3251L73.2832 67.6391L74.0117 81.5401L80.0035 81.226ZM76.1221 64.4862L63.6592 65.1394L63.9732 71.1312L76.4361 70.478L76.1221 64.4862ZM66.8121 67.9783L66.2092 56.4741L60.2174 56.7881L60.8203 68.2923L66.8121 67.9783ZM63.3703 59.627L93.0895 58.0694L92.7755 52.0777L63.0563 53.6352L63.3703 59.627ZM89.9366 55.2306L91.8709 92.1399L97.8627 91.8259L95.9284 54.9165L89.9366 55.2306Z" fill="black"/>
</g>
<defs>
<filter id="filter0_bd_1_3" x="27.9868" y="22.313" width="71.0056" height="83.1816" filterUnits="userSpaceOnUse" color-interpolation-filters="sRGB">
<feFlood flood-opacity="0" result="BackgroundImageFix"/>
<feGaussianBlur in="BackgroundImageFix" stdDeviation="2"/>
<feComposite in2="SourceAlpha" operator="in" result="effect1_backgroundBlur_1_3"/>
<feColorMatrix in="SourceAlpha" type="matrix" values="0 0 0 0 0 0 0 0 0 0 0 0 0 0 0 0 0 0 127 0" result="hardAlpha"/>
<feOffset dy="4"/>
<feGaussianBlur stdDeviation="2"/>
<feComposite in2="hardAlpha" operator="out"/>
<feColorMatrix type="matrix" values="0 0 0 0 0 0 0 0 0 0 0 0 0 0 0 0 0 0 0.25 0"/>
<feBlend mode="normal" in2="effect1_backgroundBlur_1_3" result="effect2_dropShadow_1_3"/>
<feBlend mode="normal" in="SourceGraphic" in2="effect2_dropShadow_1_3" result="shape"/>
</filter>
<linearGradient id="paint0_linear_1_3" x1="32" y1="128" x2="96" y2="-6.19888e-06" gradientUnits="userSpaceOnUse">
<stop stop-color="#0C356A"/>
<stop offset="1" stop-color="#279EFF"/>
</linearGradient>
</defs>
</svg>
